<svg width="36" height="35" viewBox="0 0 36 35" fill="none" xmlns="http://www.w3.org/2000/svg">
<g clip-path="url(#clip0_56_293)">
<path fill-rule="evenodd" clip-rule="evenodd" d="M16.7563 -0.0341797C16.9627 -0.0341797 17.1691 -0.0341797 17.3756 -0.0341797C16.7061 1.18181 16.0524 2.41228 15.4144 3.65723C14.7881 4.90153 14.2376 6.17758 13.7629 7.48535C13.3707 8.47615 13.2101 9.50154 13.2812 10.5615C13.3497 10.9484 13.5676 11.2105 13.9349 11.3477C16.9194 11.5912 19.9013 11.557 22.8807 11.2451C23.4248 11.8935 23.9524 12.5543 24.4634 13.2275C24.431 13.3091 24.3622 13.3547 24.2569 13.3643C21.1077 13.8549 17.9423 14.0372 14.7607 13.9111C13.6685 16.3658 12.5675 18.8153 11.4576 21.2598C11.7467 21.3532 12.0448 21.3874 12.3522 21.3623C12.7514 20.0246 13.1987 18.703 13.6941 17.3975C14.0487 18.7832 14.3813 20.1731 14.6919 21.5674C18.2872 21.7258 21.8655 21.5663 25.4267 21.0889C25.9741 21.815 26.5475 22.5214 27.1471 23.208C25.198 23.6153 23.2253 23.8773 21.2291 23.9941C18.4068 24.1388 15.5855 24.1274 12.7651 23.96C12.6734 23.9827 12.5816 24.0056 12.4898 24.0283C11.5319 25.0876 10.7635 26.2726 10.1846 27.583C9.75025 28.4908 9.77323 29.3794 10.2534 30.249C10.6454 30.6768 11.1156 30.973 11.6641 31.1377C10.188 31.0393 8.71997 30.8684 7.26003 30.625C6.10153 30.5655 5.21843 30.0528 4.61072 29.0869C4.25479 28.1612 4.41535 27.3409 5.09241 26.626C6.64887 24.8208 8.1972 23.0093 9.73731 21.1914C9.07161 21.0543 8.40639 20.8947 7.74172 20.7129C6.25184 19.8881 6.03394 18.8058 7.088 17.4658C8.8457 15.4237 10.5775 13.3615 12.2834 11.2793C11.7381 11.1628 11.1876 11.0717 10.6319 11.0059C9.41403 10.8014 8.89793 10.1065 9.08358 8.9209C11.2888 6.25186 13.4679 3.56306 15.6208 0.854492C15.9347 0.461378 16.3132 0.165154 16.7563 -0.0341797Z" fill="#3DAD52"/>
<path opacity="0.993" fill-rule="evenodd" clip-rule="evenodd" d="M17.3754 -0.0341797C17.7195 -0.0341797 18.0635 -0.0341797 18.4076 -0.0341797C18.7598 0.0977081 19.0695 0.302786 19.3366 0.581055C21.535 3.37578 23.7829 6.13295 26.0803 8.85254C26.3639 9.82721 26.0313 10.4994 25.0825 10.8691C24.3564 11.0422 23.6223 11.1675 22.8805 11.2451C19.9011 11.557 16.9192 11.5912 13.9347 11.3477C13.5674 11.2105 13.3495 10.9484 13.281 10.5615C13.2099 9.50154 13.3705 8.47615 13.7627 7.48535C14.2374 6.17758 14.7879 4.90153 15.4142 3.65723C16.0522 2.41228 16.7059 1.18181 17.3754 -0.0341797Z" fill="#4CC067"/>
<path opacity="0.995" fill-rule="evenodd" clip-rule="evenodd" d="M24.4632 13.2275C25.8039 14.795 27.1457 16.3672 28.4888 17.9443C29.0096 18.9852 28.7917 19.8397 27.8351 20.5078C27.077 20.8765 26.2743 21.0702 25.4266 21.0889C21.8653 21.5663 18.287 21.7258 14.6917 21.5674C14.3812 20.1731 14.0486 18.7832 13.694 17.3975C13.1986 18.703 12.7513 20.0246 12.3521 21.3623C12.0447 21.3874 11.7465 21.3532 11.4575 21.2598C12.5674 18.8153 13.6684 16.3658 14.7606 13.9111C17.9421 14.0372 21.1076 13.8549 24.2568 13.3643C24.3621 13.3547 24.4309 13.3091 24.4632 13.2275Z" fill="#4CC067"/>
<path opacity="0.992" fill-rule="evenodd" clip-rule="evenodd" d="M27.1469 23.208C28.222 24.4928 29.3115 25.7688 30.4155 27.0361C31.0772 28.3288 30.7905 29.3656 29.5554 30.1465C28.8859 30.4523 28.1862 30.646 27.4565 30.7275C26.5357 29.6078 25.6411 28.4685 24.7728 27.3096C24.7384 28.5626 24.7269 29.8159 24.7384 31.0693C23.4107 31.1983 22.0804 31.2894 20.7472 31.3428C18.6364 31.4248 16.5261 31.4248 14.4164 31.3428C13.4848 31.3255 12.5673 31.2572 11.6639 31.1377C11.1154 30.973 10.6452 30.6768 10.2532 30.249C9.77304 29.3794 9.75006 28.4908 10.1844 27.583C10.7633 26.2726 11.5317 25.0876 12.4897 24.0283C12.5814 24.0056 12.6732 23.9827 12.7649 23.96C15.5853 24.1274 18.4066 24.1388 21.2289 23.9941C23.2251 23.8773 25.1978 23.6153 27.1469 23.208Z" fill="#4DC067"/>
<path opacity="0.98" fill-rule="evenodd" clip-rule="evenodd" d="M14.4163 31.3428C16.5259 31.4248 18.6362 31.4248 20.7471 31.3428C20.8509 31.7449 20.9197 32.155 20.9535 32.5732C19.5892 32.6414 18.213 32.6642 16.8247 32.6416C16.8247 33.3936 16.8247 34.1455 16.8247 34.8975C15.8428 34.8002 14.9024 34.5495 14.0034 34.1455C13.9805 34.0999 13.9575 34.0544 13.9346 34.0088C14.1027 33.1207 14.2632 32.232 14.4163 31.3428Z" fill="#7F4A26"/>
<path fill-rule="evenodd" clip-rule="evenodd" d="M20.9535 32.5732C21.0588 33.0169 21.1506 33.4726 21.2288 33.9404C21.2058 34.0088 21.1829 34.0771 21.1599 34.1455C19.7804 34.7575 18.3353 35.0081 16.8247 34.8975C16.8247 34.1455 16.8247 33.3936 16.8247 32.6416C18.2129 32.6642 19.5892 32.6414 20.9535 32.5732Z" fill="#925C34"/>
</g>
<defs>
<clipPath id="clip0_56_293">
<rect width="35.2324" height="35" fill="white"/>
</clipPath>
</defs>
</svg>
